HIERARCHY
ROOT Hips
{
	OFFSET 0.000000 0.000000 0.000000 
	CHANNELS 6 Xposition Yposition Zposition Zrotation Yrotation Xrotation
	JOINT LeftUpLeg
	{
		OFFSET 1.363060 -1.794630 0.839290 
		CHANNELS 3 Zrotation Yrotation Xrotation
		JOINT LeftLeg
		{
			OFFSET 2.448110 -6.726130 0.000000 
			CHANNELS 3 Zrotation Yrotation Xrotation
			JOINT LeftFoot
			{
				OFFSET 2.562200 -7.039590 0.000000 
				CHANNELS 3 Zrotation Yrotation Xrotation
				JOINT LeftToeBase
				{
					OFFSET 0.157640 -0.433110 2.322550 
					CHANNELS 3 Zrotation Yrotation Xrotation
					End Site
					{
						OFFSET 0.000000 0.000000 0.000000 
					}
				}
			}
		}
	}
	JOINT RightUpLeg
	{
		OFFSET -1.305520 -1.794630 0.839290 
		CHANNELS 3 Zrotation Yrotation Xrotation
		JOINT RightLeg
		{
			OFFSET -2.542530 -6.985550 0.000000 
			CHANNELS 3 Zrotation Yrotation Xrotation
			JOINT RightFoot
			{
				OFFSET -2.568260 -7.056230 0.000000 
				CHANNELS 3 Zrotation Yrotation Xrotation
				JOINT RightToeBase
				{
					OFFSET -0.164730 -0.452590 2.363150 
					CHANNELS 3 Zrotation Yrotation Xrotation
					End Site
					{
						OFFSET 0.000000 0.000000 0.000000 
					}
				}
			}
		}
	}
	JOINT Spine
	{
		OFFSET 0.028270 2.035590 -0.193380 
		CHANNELS 3 Zrotation Yrotation Xrotation
		JOINT Spine1
		{
			OFFSET 0.056720 2.048850 -0.042750 
			CHANNELS 3 Zrotation Yrotation Xrotation
			JOINT Neck1
			{
				OFFSET -0.054170 1.746240 0.172020 
				CHANNELS 3 Zrotation Yrotation Xrotation
				JOINT Head
				{
					OFFSET 0.104070 1.761360 -0.123970 
					CHANNELS 3 Zrotation Yrotation Xrotation
					End Site
					{
						OFFSET 0.000000 0.000000 0.000000 
					}
				}
			}
			JOINT LeftArm
			{
				OFFSET 3.362410 1.200890 -0.311210 
				CHANNELS 3 Zrotation Yrotation Xrotation
				JOINT LeftForeArm
				{
					OFFSET 4.983000 -0.000000 -0.000000 
					CHANNELS 3 Zrotation Yrotation Xrotation
					JOINT LeftHand
					{
						OFFSET 3.483560 -0.000000 -0.000000 
						CHANNELS 3 Zrotation Yrotation Xrotation
						JOINT LeftHandIndex1
						{
							OFFSET 0.715260 -0.000000 -0.000000 
							CHANNELS 3 Zrotation Yrotation Xrotation
							End Site
							{
								OFFSET 0.000000 0.000000 0.000000 
							}
						}
					}
				}
			}
			JOINT RightArm
			{
				OFFSET -3.136600 1.374050 -0.404650 
				CHANNELS 3 Zrotation Yrotation Xrotation
				JOINT RightForeArm
				{
					OFFSET -5.241900 -0.000000 -0.000000 
					CHANNELS 3 Zrotation Yrotation Xrotation
					JOINT RightHand
					{
						OFFSET -3.444170 -0.000000 -0.000000 
						CHANNELS 3 Zrotation Yrotation Xrotation
						JOINT RightHandIndex1
						{
							OFFSET -0.622530 -0.000000 -0.000000 
							CHANNELS 3 Zrotation Yrotation Xrotation
							End Site
							{
								OFFSET 0.000000 0.000000 0.000000 
							}
						}
					}
				}
			}
		}
	}
}
MOTION
Frames: 7
Frame Time: 0.041667
8.983187 17.781730 6.293099 171.354496 -70.520381 -164.964186 -15.919247 -1.754638 -11.450418 0.967054 9.552209 26.249111 -0.119210 3.760204 -11.067438 0.000600 -0.159500 -0.438200 13.100696 1.820256 -16.435616 -3.295865 -11.788980 33.758549 0.423160 -7.683583 -14.721075 -0.031000 1.137200 -3.126400 0.235533 -0.683510 -1.597356 5.010140 -0.321759 1.932233 18.438582 -25.226304 8.097776 7.573500 -12.611100 8.707400 -75.869630 1.307923 16.060001 12.983101 -26.628869 -3.107020 0.914971 -0.986445 10.141219 -7.125000 0.000000 0.000000 83.897177 0.783891 11.376695 -18.032050 28.679043 -4.433964 -0.087091 -0.237763 -10.370441 7.125000 0.000000 0.000000 
8.973690 17.781630 6.291700 169.529000 -70.441210 -163.229180 -16.644264 -1.749252 -11.457526 0.978006 9.581173 26.338649 -0.164954 4.016120 -11.178239 0.007500 -0.560700 -1.540700 12.332657 1.257856 -16.683149 -3.323159 -11.830926 33.889170 0.337958 -7.104561 -14.587032 -0.024800 1.017200 -2.796000 0.174586 -0.796391 -1.559002 5.071517 -0.411355 2.134840 18.441051 -25.159491 8.152191 7.552900 -12.555400 8.760900 -75.807429 1.122766 16.062612 13.075080 -26.785407 -3.176798 0.941452 -0.967930 9.896151 -7.125000 0.000000 0.000000 84.037107 0.819598 10.589587 -18.047357 28.713540 -4.447166 -0.093534 -0.232345 -10.154933 7.125000 0.000000 0.000000 
8.972490 17.777731 6.287001 169.782815 -70.364085 -163.414376 -16.571593 -1.820826 -11.518494 0.984595 9.604474 26.403498 -0.223664 4.302944 -11.188098 0.016000 -0.817600 -2.247000 12.391813 1.245692 -16.812042 -3.323188 -11.827092 33.882487 0.256730 -6.670996 -14.781987 -0.000100 0.050600 -0.139100 0.195772 -0.872870 -1.551658 5.092888 -0.453712 2.215100 18.337173 -25.123564 8.484821 7.512400 -12.512100 9.006200 -75.887813 0.980724 15.669440 13.177062 -26.922976 -3.232228 0.958179 -0.953375 9.877458 -7.125000 0.000000 0.000000 84.101933 0.700112 9.819942 -18.319624 29.059264 -4.573226 -0.097894 -0.231072 -10.080482 7.125000 0.000000 0.000000 
8.966892 17.787428 6.273006 171.811785 -70.442144 -165.290743 -15.765207 -1.738548 -11.569764 0.984038 9.597106 26.382314 -0.227429 4.283283 -11.067537 0.015500 -0.804500 -2.211000 13.296154 1.152629 -16.901475 -3.347124 -11.854971 34.001848 0.195890 -6.473962 -15.239167 -0.008100 -0.581000 1.596700 0.252035 -0.886584 -1.631357 4.883006 -0.410588 1.877326 18.200944 -25.145223 8.784300 7.485700 -12.534900 9.156300 -75.745360 1.188275 15.604773 13.250531 -27.015854 -3.285643 0.962320 -0.948561 9.746789 -7.125000 0.000000 0.000000 84.222431 0.186534 8.977657 -18.586150 29.370173 -4.696317 -0.107179 -0.235811 -10.143747 7.125000 0.000000 0.000000 
8.955096 17.790127 6.247313 172.576414 -70.585300 -166.163684 -15.374947 -1.425592 -11.447545 0.994082 9.592542 26.378054 -0.153683 3.901257 -10.974789 0.007500 -0.560400 -1.540000 13.744058 0.780503 -16.764010 -3.378999 -11.897794 34.161512 0.131868 -6.208726 -15.564797 -0.022600 -0.970700 2.668100 0.270146 -0.916657 -1.668961 4.837446 -0.405966 1.650225 17.997148 -25.200621 9.041408 7.369300 -12.563700 9.210600 -75.569732 1.331898 15.528817 13.275780 -27.075942 -3.345563 0.966073 -0.942127 9.858606 -7.125000 0.000000 0.000000 84.335323 -0.306587 8.338311 -18.726364 29.519803 -4.761380 -0.115156 -0.238301 -10.392086 7.125000 0.000000 0.000000 
8.954396 17.789528 6.244814 171.253528 -70.384899 -164.976458 -15.890389 -1.345964 -11.399280 0.996915 9.596555 26.396577 -0.144004 3.886237 -11.085673 0.006100 -0.502400 -1.380500 13.143554 0.540599 -16.978301 -3.430382 -11.972370 34.409129 0.078999 -5.780453 -15.354869 -0.029800 -1.115300 3.066100 0.204745 -0.848279 -1.691668 4.886870 -0.374580 1.480467 17.772035 -25.320430 9.315919 7.207400 -12.607100 9.304600 -75.490290 1.339988 15.631670 13.331883 -27.157098 -3.388769 0.962812 -0.941036 10.028869 -7.125000 0.000000 0.000000 84.249123 -0.494954 7.902104 -18.737063 29.510690 -4.767031 -0.121156 -0.238417 -11.006324 7.125000 0.000000 0.000000 
8.969591 17.797925 6.245914 171.637313 -70.118641 -165.128113 -15.770414 -1.339249 -11.665692 0.979679 9.574047 26.319438 -0.176884 4.037744 -11.060648 0.011900 -0.703800 -1.934100 13.219151 0.751104 -17.525472 -3.490085 -12.056639 34.699043 0.102062 -5.770073 -14.995610 -0.008900 -0.608000 1.670800 0.219519 -0.761154 -1.702712 4.979606 -0.329695 1.478914 17.652950 -25.330786 9.443649 7.116800 -12.592300 9.355100 -75.525197 1.110989 16.159285 13.361051 -27.175376 -3.374325 0.948570 -0.946644 9.161373 -7.125000 0.000000 0.000000 83.899900 -0.268379 7.873565 -18.634845 29.381441 -4.722881 -0.125678 -0.233214 -12.117469 7.125000 0.000000 0.000000 
